# xmcd
#
# Track frame offsets: 
#        150
#        18280
#        34579
#        51040
#        65627
#        82054
#        100198
#        110854
#        128952
#        144277
#        156517
#        170671
#        184626
#        204445
#        219152
#        232996
#        253052
#        269366
#        285236
#        305196
#        332101
#
# Disc length: 4662 seconds
#
# Revision: 5
# Processed by: cddbd v1.5.2PL0 Copyright (c) Steve Scherf et al.
# Submitted via: ExactAudioCopyFreeDBPlugin 1.0
#
DISCID=34123415
DTITLE=Rita Coolidge - Delta Lady - Anthology
DYEAR=2004
DGENRE=Power Ballad
TTITLE0=(Your Love Has Lifted Me) Higher and Higher
TTITLE1=The Way You Do the Things You Do
TTITLE2=We're All Alone
TTITLE3=You
TTITLE4=Love Me Again
TTITLE5=Slow Dancer
TTITLE6=Rita Coolidge+Kris Kristofferson - Please Don't Tell Me How th
TTITLE6=e Story Ends
TTITLE7=One Fine Day
TTITLE8=I'd Rather Leave When I'm In Love
TTITLE9=Rita Coolidge+Glen Campbell - Somethin' 'Bout You Baby I Like
TTITLE10=Fool That I Am
TTITLE11=Basic Lady
TTITLE12=The Closer You Get
TTITLE13=Only You
TTITLE14=All Time High (Theme Song from 'Octopussy')
TTITLE15=Love Came for Me (Love Theme from 'Splash')
TTITLE16=Something Said Love
TTITLE17=Survivor
TTITLE18=Rita Coolidge+Ruper Holmes - Perfect Strangers (Love Theme fr
TTITLE18=om 'The Mystery Of Edwin Drood')
TTITLE19=Cherokee
TTITLE20=The Way I Love You
EXTD=
EXTT0=
EXTT1=
EXTT2=
EXTT3=
EXTT4=
EXTT5=
EXTT6=
EXTT7=
EXTT8=
EXTT9=
EXTT10=
EXTT11=
EXTT12=
EXTT13=
EXTT14=
EXTT15=
EXTT16=
EXTT17=
EXTT18=
EXTT19=
EXTT20=
PLAYORDER=
